Coordinates
version=1
nRows=15
nColumns=46
inDegrees=yes

Units are S.I. units (second, meters, Newtons, ...)
Angles are in degrees.

endheader
time	pelvis_tilt	pelvis_list	pelvis_rotation	pelvis_tx	pelvis_ty	pelvis_tz	bb_angle	bb_tx	bb_ty	bb_tz	hip_flexion_r	hip_adduction_r	hip_rotation_r	knee_angle_r	knee_angle_r_beta	ankle_angle_r	subtalar_angle_r	mtp_angle_r	crank_angle_r	hip_flexion_l	hip_adduction_l	hip_rotation_l	knee_angle_l	knee_angle_l_beta	ankle_angle_l	subtalar_angle_l	mtp_angle_l	crank_angle_l	lumbar_extension	lumbar_bending	lumbar_rotation	arm_flex_r	arm_add_r	arm_rot_r	elbow_flex_r	pro_sup_r	wrist_flex_r	wrist_dev_r	arm_flex_l	arm_add_l	arm_rot_l	elbow_flex_l	pro_sup_l	wrist_flex_l	wrist_dev_l
      2.50000000	    -27.64648476	      5.47462459	      4.74723775	      0.39664819	      1.18427553	     -0.25553871	      0.00000000	      0.50000000	      0.00000000	      0.25000000	     35.18775108	    -10.67851139	     -8.65777902	     26.59557646	      0.46418038	     -7.59507843	      1.92253621	      0.00000000	      0.00000000	     79.86632097	     -0.14792403	      0.52434731	    108.13059865	      1.88723497	    -10.00866734	     -4.37215918	      0.00000000	      0.00000000	    -59.08013134	     -1.39622910	     -6.84011866	     50.49632293	    -14.33163125	     19.16634621	     84.59197723	     56.35911859	      0.00000000	      0.00000000	     46.93920774	    -20.47738213	     15.34664024	     91.74712272	     54.16542188	      0.00000000	      0.00000000
      2.50500000	    -27.51770397	      5.39770644	      5.23068083	      0.39707898	      1.18509618	     -0.25586659	      0.00000000	      0.50000000	      0.00000000	      0.25000000	     34.27157394	    -10.95038636	     -9.62365137	     26.43331738	      0.46134842	     -8.02288749	      2.29739111	      0.00000000	      0.00000000	     80.51944369	      0.31559388	      0.61094163	    108.13789425	      1.88736230	     -9.69064645	     -4.73130664	      0.00000000	      0.00000000	    -59.22431948	     -1.25905107	     -7.00815191	     50.49277497	    -14.26969755	     18.90059106	     84.10854524	     56.27291169	      0.00000000	      0.00000000	     47.26500948	    -20.60311033	     15.77568024	     91.49412066	     54.18373044	      0.00000000	      0.00000000
      2.51000000	    -27.55603339	      5.37387596	      5.57188863	      0.39723426	      1.18584096	     -0.25564228	      0.00000000	      0.50000000	      0.00000000	      0.25000000	     33.72670316	    -11.10559472	    -10.07656902	     26.49883444	      0.46249191	     -8.50010139	      2.28669660	      0.00000000	      0.00000000	     81.23301897	      0.64877683	      0.60630571	    108.00332259	      1.88501358	     -9.12794282	     -5.06930522	      0.00000000	      0.00000000	    -59.29870470	     -1.31746706	     -7.21719929	     50.47401051	    -14.32801272	     18.81788063	     83.94558868	     56.24389612	      0.00000000	      0.00000000	     47.57525310	    -20.67502993	     15.80937944	     91.50998300	     54.18924865	      0.00000000	      0.00000000
      2.51500000	    -27.51242439	      5.32651469	      6.01960252	      0.39753349	      1.18698873	     -0.25575220	      0.00000000	      0.50000000	      0.00000000	      0.25000000	     33.16964995	    -11.31628471	    -10.62842960	     26.76803184	      0.46719029	     -9.05585952	      2.05533251	      0.00000000	      0.00000000	     81.76351240	      1.10595975	      0.61130582	    107.69242752	      1.87958744	     -8.70746445	     -5.46747485	      0.00000000	      0.00000000	    -59.50716281	     -1.18709667	     -7.38866668	     50.51151410	    -14.35847987	     18.72701490	     83.73222608	     56.20787378	      0.00000000	      0.00000000	     47.83402233	    -20.78789984	     15.98719092	     91.50183719	     54.20955402	      0.00000000	      0.00000000
      2.52000000	    -27.37233673	      5.28070009	      6.40971183	      0.39772357	      1.18849154	     -0.25611829	      0.00000000	      0.50000000	      0.00000000	      0.25000000	     32.66233029	    -11.53149775	    -11.10574218	     27.24424698	      0.47550181	     -9.63366127	      1.76804314	      0.00000000	      0.00000000	     82.11558283	      1.61169994	      0.59698762	    107.25571980	      1.87196545	     -8.49581966	     -6.15226603	      0.00000000	      0.00000000	    -59.82422693	     -1.05211065	     -7.60365255	     50.82716025	    -14.29194139	     18.67541206	     83.18636942	     56.15143927	      0.00000000	      0.00000000	     48.32137863	    -21.27787611	     16.67630531	     91.41665147	     54.28719215	      0.00000000	      0.00000000
      2.52500000	    -27.37981302	      5.14908862	      6.72571452	      0.39779980	      1.18958770	     -0.25645175	      0.00000000	      0.50000000	      0.00000000	      0.25000000	     32.52973256	    -11.63754576	    -11.37891511	     28.05640068	      0.48967657	    -10.23826494	      1.34955756	      0.00000000	      0.00000000	     82.55388616	      1.98309538	      0.65458624	    106.78941267	      1.86382686	     -7.82338170	     -6.50845335	      0.00000000	      0.00000000	    -60.00466304	     -0.89209297	     -7.66679584	     50.94879347	    -14.35233846	     18.62887402	     83.11876330	     56.14238755	      0.00000000	      0.00000000	     48.51217048	    -21.35465513	     16.72123560	     91.50833705	     54.30761250	      0.00000000	      0.00000000
      2.53000000	    -27.39743655	      5.00519971	      7.08809047	      0.39767466	      1.19093037	     -0.25702640	      0.00000000	      0.50000000	      0.00000000	      0.25000000	     32.57008866	    -11.79591640	    -11.62116901	     29.10423441	      0.50796472	    -11.00495899	      0.76110514	      0.00000000	      0.00000000	     82.90569265	      2.45787725	      0.74871398	    106.16590762	      1.85294464	     -7.20207946	     -6.85686419	      0.00000000	      0.00000000	    -60.23596492	     -0.64583033	     -7.77352163	     51.15259617	    -14.44471823	     18.57676023	     83.07320240	     56.13606492	      0.00000000	      0.00000000	     48.73656677	    -21.47457992	     16.83106945	     91.65862749	     54.34426756	      0.00000000	      0.00000000
      2.53500000	    -27.56210132	      4.91106792	      7.43135967	      0.39723790	      1.19210170	     -0.25767517	      0.00000000	      0.50000000	      0.00000000	      0.25000000	     32.93055826	    -11.97662949	    -11.60265369	     30.34602318	      0.52963802	    -11.94905864	     -0.29733334	      0.00000000	      0.00000000	     83.30836135	      2.89482912	      0.72071551	    105.36836558	      1.83902491	     -6.76111456	     -7.36324204	      0.00000000	      0.00000000	    -60.34656758	     -0.44213839	     -7.98663513	     51.37215186	    -14.57290845	     18.69431166	     83.03238446	     56.16882729	      0.00000000	      0.00000000	     48.95562820	    -21.91696802	     17.20445357	     91.98921622	     54.44470481	      0.00000000	      0.00000000
      2.54000000	    -27.52366382	      4.75809221	      7.74836337	      0.39701944	      1.19370519	     -0.25828420	      0.00000000	      0.50000000	      0.00000000	      0.25000000	     33.19344428	    -12.11115504	    -11.62400610	     31.77988636	      0.55466365	    -12.86501080	     -1.09076769	      0.00000000	      0.00000000	     83.34702545	      3.32478399	      0.83428604	    104.48124627	      1.82354175	     -5.96545692	     -7.66131513	      0.00000000	      0.00000000	    -60.65069910	     -0.15797548	     -8.06831943	     51.66779658	    -14.64559423	     18.67227143	     83.06593236	     56.18074666	      0.00000000	      0.00000000	     49.22081225	    -22.08636939	     17.29610133	     92.21591246	     54.49024928	      0.00000000	      0.00000000
      2.54500000	    -27.56985724	      4.54677965	      7.98643301	      0.39671715	      1.19507247	     -0.25892148	      0.00000000	      0.50000000	      0.00000000	      0.25000000	     33.72711372	    -12.20790842	    -11.62756002	     33.45885555	      0.58396719	    -13.88508110	     -1.92940046	      0.00000000	      0.00000000	     83.39394938	      3.66071831	      1.00331550	    103.52314279	      1.80681969	     -5.12669079	     -7.88368511	      0.00000000	      0.00000000	    -60.92265489	      0.12457010	     -8.08193247	     51.95931984	    -14.72996523	     18.63543784	     83.14111529	     56.19399444	      0.00000000	      0.00000000	     49.44881659	    -22.27335016	     17.37017372	     92.45503233	     54.53516741	      0.00000000	      0.00000000
      2.55000000	    -27.79268741	      4.39646301	      8.21420835	      0.39614164	      1.19624624	     -0.25924125	      0.00000000	      0.50000000	      0.00000000	      0.25000000	     34.60422655	    -12.24659565	    -11.13006091	     35.27035574	      0.61558384	    -15.26475317	     -3.49717004	      0.00000000	      0.00000000	     83.49089905	      3.95726831	      1.11845308	    102.35234128	      1.78638535	     -4.35498087	     -7.78655720	      0.00000000	      0.00000000	    -61.03977228	      0.32262546	     -8.25694592	     52.13404053	    -14.87213862	     18.76427602	     83.34978133	     56.26656750	      0.00000000	      0.00000000	     49.62406577	    -22.86781456	     17.68612684	     93.01777526	     54.66194149	      0.00000000	      0.00000000
      2.55500000	    -27.68141301	      4.10118469	      8.52175802	      0.39578118	      1.19806832	     -0.25970329	      0.00000000	      0.50000000	      0.00000000	      0.25000000	     35.09295637	    -12.22426341	    -10.91002713	     37.08339032	      0.64722726	    -16.27016947	     -3.93805610	      0.00000000	      0.00000000	     83.16898660	      4.27123358	      1.41443184	    101.11243751	      1.76474495	     -3.63863915	     -7.86895190	      0.00000000	      0.00000000	    -61.44769246	      0.81797660	     -8.12291622	     52.38493145	    -14.91836925	     18.68266475	     83.40619866	     56.26780116	      0.00000000	      0.00000000	     49.83597929	    -23.05629266	     17.68815165	     93.20523999	     54.68891444	      0.00000000	      0.00000000
      2.56000000	    -27.90553306	      3.91908714	      8.69238137	      0.39503851	      1.19915709	     -0.25996710	      0.00000000	      0.50000000	      0.00000000	      0.25000000	     36.19964031	    -12.24964267	    -10.47332273	     39.15271824	      0.68334384	    -17.90325812	     -5.73559232	      0.00000000	      0.00000000	     83.05655447	      4.49604800	      1.62502544	     99.71357247	      1.74033015	     -2.62177091	     -7.47489399	      0.00000000	      0.00000000	    -61.66435125	      1.00433890	     -8.40664294	     52.85345565	    -15.02672149	     18.76674085	     83.83057959	     56.38535089	      0.00000000	      0.00000000	     50.06792495	    -24.17457106	     18.16080344	     94.26166388	     54.90532727	      0.00000000	      0.00000000
      2.56500000	    -27.90018826	      3.56515358	      8.89940698	      0.39441748	      1.20049841	     -0.26067701	      0.00000000	      0.50000000	      0.00000000	      0.25000000	     37.05346190	    -12.21864745	    -10.28214799	     41.23429434	      0.71967420	    -19.06613238	     -6.31529324	      0.00000000	      0.00000000	     82.65319642	      4.78443730	      2.05646196	     98.26674852	      1.71507831	     -1.77856772	     -7.47751445	      0.00000000	      0.00000000	    -61.98155395	      1.47240108	     -8.30165361	     53.30603148	    -15.14064675	     18.63744737	     83.93198215	     56.39025690	      0.00000000	      0.00000000	     50.30975754	    -24.35971501	     18.11274538	     94.58216452	     54.94497090	      0.00000000	      0.00000000
      2.57000000	    -28.01432391	      3.21640291	      8.97642666	      0.39380830	      1.20147553	     -0.26082322	      0.00000000	      0.50000000	      0.00000000	      0.25000000	     38.12548477	    -12.01092636	     -9.78146259	     43.34032225	      0.75643132	    -20.61069153	     -7.52090491	      0.00000000	      0.00000000	     82.27043662	      4.81584865	      2.41113821	     96.70022297	      1.68773728	     -0.95639593	     -7.09638935	      0.00000000	      0.00000000	    -62.19341181	      1.75533743	     -8.26996327	     53.59016859	    -15.28258980	     18.77474868	     84.23348251	     56.47654477	      0.00000000	      0.00000000	     50.37057469	    -24.99118238	     18.20900696	     95.36197335	     55.07325878	      0.00000000	      0.00000000
